:SAMPLES-PER-SECOND 30
:FULLY-SPECIFIED
:DEGREES
202
root  78.2895 38.6538 2.62014 -126.855 -84.8465 133.458
RightUpLeg  -25.8035 -9.43841 -6.98456
RightLeg  30.4628 -8.89942 -5.84331
RightFoot  -8.43746 -0.183193 5.14017
RightToes  5.82063e-011 0 -3.6325e-017
Spine  65.3586 -0.610003 3.22128
Spine1  15.2166 3.50372 -4.47937
HEad  -43.6833 -3.97078 -0.153639
LeftShoulder1  9.72644 -24.9253 -27.9518
LeftArm  -26.5072 -71.5376 -16.6328
LeftForeArm  -11.4093 -12.944 -7.65341
LeftHand  -0.244104 0.0205437 5.32207
RightShoulder  4.54266 15.2144 17.6665
RightArm  -37.1888 61.0592 15.733
RightForeArm  -50.3698 18.4036 7.20589
RightHand  -6.35062 18.1002 -30.9329
LeftUpLeg  -29.0301 25.4863 -8.92725
LeftLeg  19.8261 -1.85531 -0.424896
LeftFoot  1.14773 -0.177116 1.55752
LeftToes  1.45487e-011 -6.19069e-011 1.65092e-011
203
root  78.6584 38.78 2.36892 -134.194 -85.4658 140.08
RightUpLeg  -25.2536 -11.8854 -5.03441
RightLeg  28.9178 -7.74052 -4.83608
RightFoot  -7.16672 -0.123098 2.07527
RightToes  5.82063e-011 0 -3.6325e-017
Spine  66.9226 -1.95513 4.67573
Spine1  14.2784 3.57295 -5.57458
HEad  -44.8944 -4.22367 -0.913457
LeftShoulder1  10.3047 -25.2703 -29.5771
LeftArm  -28.0153 -70.7647 -13.8188
LeftForeArm  -11.3948 -13.6735 -7.4689
LeftHand  -0.244104 0.0205437 5.32207
RightShoulder  4.56571 15.2039 17.8144
RightArm  -35.7001 61.2237 15.0491
RightForeArm  -47.104 18.6802 7.20199
RightHand  -5.81512 17.2374 -29.4942
LeftUpLeg  -27.6352 22.6962 -6.45903
LeftLeg  18.357 0.857589 0.452363
LeftFoot  2.25383 -0.0935888 0.66781
LeftToes  1.45487e-011 -6.19069e-011 1.65092e-011
204
root  79.0378 38.8414 2.06038 -142.117 -85.6988 147.164
RightUpLeg  -24.7773 -14.3367 -3.49275
RightLeg  28.0675 -6.22452 -3.81721
RightFoot  -5.67634 -0.0787903 0.77372
RightToes  5.82063e-011 0 -3.6325e-017
Spine  67.9396 -2.43092 5.08157
Spine1  14.2988 3.37036 -5.33034
HEad  -45.7976 -3.99869 -1.96238
LeftShoulder1  10.7629 -25.3836 -31.0376
LeftArm  -31.7861 -70.0484 -9.36039
LeftForeArm  -9.90072 -14.4924 -6.97151
LeftHand  -0.244104 0.0205437 5.32207
RightShoulder  4.58684 15.1607 17.9988
RightArm  -35.6847 62.7516 12.7934
RightForeArm  -41.4424 18.0372 7.21455
RightHand  -4.99752 15.7056 -27.3066
LeftUpLeg  -26.3626 20.4644 -4.26122
LeftLeg  17.2817 3.24845 0.896257
LeftFoot  3.03652 -0.0451138 0.209375
LeftToes  1.45487e-011 -6.19069e-011 1.65092e-011
205
root  79.4004 38.8268 1.66391 -143.186 -86.0202 147.78
RightUpLeg  -24.4216 -15.8488 -2.4803
RightLeg  27.3503 -4.93239 -2.99398
RightFoot  -5.50263 -0.0730942 0.694418
RightToes  5.82063e-011 0 -3.6325e-017
Spine  68.0281 -2.22264 4.8332
Spine1  14.7026 2.83989 -3.8555
HEad  -46.0882 -3.57758 -2.19227
LeftShoulder1  11.0907 -25.2347 -32.3799
LeftArm  -35.1658 -69.2262 -5.49402
LeftForeArm  -6.26647 -15.7525 -6.25171
LeftHand  -0.244104 0.0205437 5.32207
RightShoulder  4.77542 15.1257 19.1403
RightArm  -35.0085 64.5432 9.34296
RightForeArm  -35.8001 17.7083 7.2972
RightHand  -4.02013 13.5993 -24.5412
LeftUpLeg  -26.0419 19.5539 -3.16168
LeftLeg  16.6909 3.87296 0.945989
LeftFoot  3.81537 -0.0556622 0.243952
LeftToes  1.45487e-011 -6.19069e-011 1.65092e-011
206
root  79.6917 38.8111 1.3928 -137.964 -86.7986 142.258
RightUpLeg  -24.1825 -17.6334 -1.66485
RightLeg  26.7516 -3.91714 -2.37349
RightFoot  -5.77733 -0.0397041 0.0155307
RightToes  5.82063e-011 0 -3.6325e-017
Spine  67.7518 -2.91174 5.28069
Spine1  14.7004 2.08086 -3.10841
HEad  -45.8129 -3.21629 -1.7489
LeftShoulder1  11.388 -24.9248 -33.8461
LeftArm  -35.3841 -68.0824 -4.31624
LeftForeArm  -1.00661 -17.4941 -5.53642
LeftHand  -0.244104 0.0205437 5.32207
RightShoulder  4.97679 15.169 20.2348
RightArm  -31.3982 64.9998 7.34647
RightForeArm  -32.0895 18.3772 7.28721
RightHand  -3.16732 11.3189 -22.0996
LeftUpLeg  -26.0372 18.3497 -2.51059
LeftLeg  16.5404 4.60344 1.27496
LeftFoot  3.85809 -0.0686382 0.343258
LeftToes  1.45487e-011 -6.19069e-011 1.65092e-011
207
root  79.9045 38.8319 1.35041 -122.448 -87.8866 126.201
RightUpLeg  -23.7542 -20.714 -1.10766
RightLeg  26.3623 -2.63126 -1.64702
RightFoot  -5.42683 0.0190773 -1.07663
RightToes  5.82063e-011 0 -3.6325e-017
Spine  67.2422 -4.97604 6.80717
Spine1  14.6053 1.17758 -3.65859
HEad  -45.1981 -3.01918 -1.71603
LeftShoulder1  11.7446 -24.6774 -35.4442
LeftArm  -32.0569 -66.2932 -5.89168
LeftForeArm  4.59795 -19.264 -4.97652
LeftHand  -0.244104 0.0205437 5.32207
RightShoulder  5.04731 15.2709 20.4812
RightArm  -25.0289 63.9265 7.90506
RightForeArm  -29.8225 19.4162 7.11881
RightHand  -2.66979 9.51893 -20.919
LeftUpLeg  -25.6813 15.9254 -1.86807
LeftLeg  16.7784 6.85357 2.26999
LeftFoot  2.35696 -0.0255074 0.0883645
LeftToes  1.45487e-011 -6.19069e-011 1.65092e-011
208
root  80.0803 38.8501 1.34115 -106.014 -88.4657 109.132
RightUpLeg  -23.2172 -23.3129 -0.779548
RightLeg  26.076 -1.23426 -0.887137
RightFoot  -4.78458 0.0605206 -1.62673
RightToes  5.82063e-011 0 -3.6325e-017
Spine  66.0748 -6.4492 8.11534
Spine1  14.9965 0.564581 -3.9856
HEad  -44.2394 -3.08362 -2.4229
LeftShoulder1  12.1156 -24.5818 -36.8733
LeftArm  -26.767 -63.5366 -8.9276
LeftForeArm  10.1425 -20.6852 -4.5439
LeftHand  -0.244104 0.0205437 5.32207
RightShoulder  5.13754 15.3567 20.8606
RightArm  -17.8251 62.3126 9.51845
RightForeArm  -27.1115 19.9235 6.99895
RightHand  -2.46551 8.50384 -20.7176
LeftUpLeg  -25.3864 14.8404 -1.49481
LeftLeg  17.7587 8.30485 3.19518
LeftFoot  -0.0530581 0.120098 -1.24038
LeftToes  1.45487e-011 -6.19069e-011 1.65092e-011
209
root  80.2159 38.8606 1.26081 -116.283 -88.6453 118.851
RightUpLeg  -22.6236 -24.3102 -0.356117
RightLeg  25.5781 -0.188185 -0.327113
RightFoot  -4.37728 0.087812 -1.92958
RightToes  5.82063e-011 0 -3.6325e-017
Spine  64.358 -6.51074 8.60646
Spine1  15.6824 0.418616 -3.54008
HEad  -42.8403 -3.36672 -3.27004
LeftShoulder1  12.4119 -24.4226 -38.1407
LeftArm  -21.018 -59.8234 -12.3879
LeftForeArm  16.5569 -21.8284 -4.13897
LeftHand  -0.244104 0.0205437 5.32207
RightShoulder  5.38947 15.3921 22.2252
RightArm  -10.8237 60.5876 11.6786
RightForeArm  -22.8314 19.6692 7.03701
RightHand  -2.32901 7.94973 -20.3871
LeftUpLeg  -25.2324 15.9275 -1.10051
LeftLeg  19.7045 7.26703 3.20509
LeftFoot  -2.01947 0.336732 -3.9808
LeftToes  1.45487e-011 -6.19069e-011 1.65092e-011
